<svg xmlns="http://www.w3.org/2000/svg" xmlns:xlink="http://www.w3.org/1999/xlink" viewBox="0,0,256,256" width="24px" height="24px" fill-rule="nonzero"><g fill="none" fill-rule="nonzero" stroke="none" stroke-width="1" stroke-linecap="butt" stroke-linejoin="miter" stroke-miterlimit="10" stroke-dasharray="" stroke-dashoffset="0" font-family="none" font-weight="none" font-size="none" text-anchor="none" style="mix-blend-mode: normal"><g transform="scale(5.33333,5.33333)"><path d="M41.5,13c-1.933,0 -3.5,1.567 -3.5,3.5c0,1.933 1.567,3.5 3.5,3.5c1.933,0 3.5,-1.567 3.5,-3.5c0,-1.933 -1.567,-3.5 -3.5,-3.5zM4,40l23,4v-40l-23,4z" fill="#000000"></path><path d="M21,16.27v2.73l-3.99,0.18l-0.02,11.86l-2.98,-0.09v-11.66l-4.01,0.16v-2.51z" fill="#ffffff"></path><path d="M36,14c0,2.21 -1.79,4 -4,4c-1.2,0 -2.27,-0.53 -3,-1.36v-5.28c0.73,-0.83 1.8,-1.36 3,-1.36c2.21,0 4,1.79 4,4zM38,23v11c0,0 1.567,0 3.5,0c1.762,0 3.205,-1.306 3.45,-3h0.05v-8zM29,20v17c0,0 1.567,0 3.5,0c1.762,0 3.205,-1.306 3.45,-3h0.05v-14z" fill="#000000"></path></g></g></svg>